<svg id="Layer_1" data-name="Layer 1" xmlns="http://www.w3.org/2000/svg" viewBox="0 0 334.72 296.43"><defs><style>.cls-1{fill:#026d77;stroke:#fff;stroke-miterlimit:10;stroke-width:2px;}.cls-2{fill:#81c4bd;}.cls-3{fill:#fff;}</style></defs><title>MNlogofinal</title><ellipse class="cls-1" cx="168.06" cy="143.4" rx="110.73" ry="108.44"/><path class="cls-2" d="M212.05,124.53c-5.1,9-10.37,17.89-16,26.58-5,7.81-10.53,15.29-15.82,22.92l-.73,1a2,2,0,0,1-2.75.83c-1.24-.63-1.3-1.73-.85-2.89,1.29-3.21,2.64-6.4,3.9-9.63,4.48-11.56,9-23.08,13.32-34.7a23.61,23.61,0,0,0,1.23-8.28,7.83,7.83,0,0,0-5.7-7.68,8,8,0,0,0-9.15,2.29c-3.26,3.51-5.29,7.74-7.08,12.1-1.13,2.77-2,5.66-3.07,8.44-.38.93-1,2.14-1.85,2.43-1.36.49-1.69-1.05-2.26-2-3.39-5.36-6.69-10.78-10.22-16a29.2,29.2,0,0,0-4.48-4.7,8.22,8.22,0,0,0-7.39-1.94c-3.57.59-5.82,3.47-6.07,7.8a22.88,22.88,0,0,0,2.6,11.91q10.35,20.25,20.79,40.43c1.82,3.52,2.95,7.17,2.43,11.18-.77,6-4.66,8.89-10.62,7.92a16.83,16.83,0,0,1-9.56-5.6,2.43,2.43,0,0,1-.19-2.32,2.6,2.6,0,0,1,2.23-.67c2.06.43,4,1.33,6.09,1.69,3.72.66,5.57-1.07,5.48-4.87a13.69,13.69,0,0,0-2.66-7.91q-5.08-7-10.64-13.57c-6-7.15-12.44-13.95-18.17-21.3-6.49-8.33-9.06-18.08-8.35-28.63a24.15,24.15,0,0,1,.92-5.19c1.89-6.52,6.45-10,13.22-10.49A17.06,17.06,0,0,1,143.51,98,62.94,62.94,0,0,1,156.06,113c3.63,5.83,6.91,11.88,10.33,17.83.29.51.54,1,1,1.85l1.07-2.82c3.79-9.78,8-19.35,14.5-27.7a52.48,52.48,0,0,1,8.27-8.32c7.72-6.31,23.82-2.57,25,11.89A32.47,32.47,0,0,1,212.05,124.53Z"/><path class="cls-3" d="M210.16,72.54c3.08-1.11,5.87-.09,6.9,3a26.63,26.63,0,0,1,1,7.42c.1,2.87-.14,5.76,1.61,8.57a3.59,3.59,0,0,1-3.61-1.91,39.46,39.46,0,0,1-2.21-5.32c-.65-1.75-1.16-3.57-2.94-4.74-.4,1.2-.69,2.33-1.16,3.39a9.07,9.07,0,0,1-5.3,5.34c-3.23,1.16-6.73-.07-8.85-3.33a13.32,13.32,0,0,1-.56-14.21c1.44-2.76,3.74-4.61,7-4.65s5.49,1.78,7.09,4.47C209.48,71.16,209.78,71.8,210.16,72.54Z"/><path class="cls-2" d="M142.11,79.68a12.43,12.43,0,0,1-3,8.62,7.34,7.34,0,0,1-11.42.14c-4.06-4.36-4.18-12.57-.24-17.06,3.5-4,8.67-3.88,12,.26A12.77,12.77,0,0,1,142.11,79.68Z"/><path class="cls-3" d="M166.75,138a1.49,1.49,0,0,1-.8-.76c-.14-.26-.42-.88-.57-1.12-3.45-5.38-6.76-10.85-10.31-16.16a29.73,29.73,0,0,0-4.48-4.71,8.22,8.22,0,0,0-7.39-1.93c-3.57.59-5.82,3.47-6.07,7.8a23,23,0,0,0,2.6,11.91q10.34,20.24,20.78,40.41c1.82,3.52,3,7.16,2.44,11.17-.78,6-4.78,9-10.77,7.91a17,17,0,0,1-9.39-5.55,2.39,2.39,0,0,1-.22-2.31A2.88,2.88,0,0,1,145,184c2,.4,3.91,1.27,5.92,1.63,3.73.65,5.59-1.05,5.51-4.84a13.75,13.75,0,0,0-2.64-7.91c-3.43-4.68-7-9.24-10.75-13.69-6-7.11-12.35-13.86-18.05-21.17-6.53-8.37-9.13-18.17-8.35-28.77a24.07,24.07,0,0,1,1.42-6.5c2-5.51,6.13-8.35,11.93-9A17.17,17.17,0,0,1,143.6,98.1a68.63,68.63,0,0,1,13.49,16.41c3.52,5.66,7,12.15,10.25,18.09C167.34,134.6,167.05,138.13,166.75,138Z"/><path class="cls-2" d="M110.9,212.9v-.26c.76-.08.79-.13.78-1.13v-3.8c-.76,1.71-2,4.37-2.32,5.19h-.24c-.32-.85-1.37-3.41-2.08-5.1-.15,3.26-.16,4-.16,4.17,0,.53.24.6.87.67v.26h-2.2v-.26c.54-.06.76-.17.83-.67s.07-.75.31-4.15c0-.48-.06-.64-.87-.71v-.26h1.62l2,4.72,2.21-4.72h1.63v.26c-.8.09-.91.17-.89.83l0,3.57c0,1,.06,1,.88,1.13v.26Z"/><path class="cls-2" d="M119.43,212.9v-.26c.6-.08.68-.17.55-.53s-.31-.82-.51-1.41h-2c-.15.42-.29.78-.41,1.16-.21.61-.08.68.68.78v.26h-2.15v-.26c.59-.08.74-.14,1.06-1l1.93-4.89.3-.05c.59,1.59,1.23,3.35,1.81,5,.3.81.39.88,1,1v.26Zm-.93-5-.9,2.38h1.74Z"/><path class="cls-2" d="M128.8,211.35c-.06.29-.34,1.26-.43,1.55H124v-.26c.85-.09.92-.13.92-.93V208c0-.79-.09-.84-.84-.91v-.26h2.5v.26c-.75.07-.85.11-.85.91v3.79c0,.57.08.7.61.7h.73c.48,0,.62-.05.83-.28a3.39,3.39,0,0,0,.57-1Z"/><path class="cls-2" d="M134.71,212.9v-.26c.61-.08.68-.17.55-.53s-.3-.82-.5-1.41h-2c-.15.42-.29.78-.42,1.16-.2.61-.07.68.69.78v.26h-2.15v-.26c.59-.08.73-.14,1.06-1l1.93-4.89.29-.05c.59,1.59,1.23,3.35,1.82,5,.3.81.38.88,1,1v.26Zm-.93-5-.89,2.38h1.74Z"/><path class="cls-2" d="M141.81,206.85a2.61,2.61,0,0,1,1.57.4,1.55,1.55,0,0,1,.62,1.32,1.93,1.93,0,0,1-2.05,1.91l-.25,0-.64-.17v1.45c0,.78.06.8.92.9v.26h-2.57v-.26c.8-.09.84-.14.84-.92V208c0-.83-.11-.85-.84-.92v-.26Zm-.75,3.11a1.57,1.57,0,0,0,.68.13,1.47,1.47,0,0,0-.06-2.93.85.85,0,0,0-.52.11c-.07.07-.1.18-.1.43Z"/><path class="cls-2" d="M149.34,206.85a2.61,2.61,0,0,1,1.57.4,1.57,1.57,0,0,1,.61,1.32,1.93,1.93,0,0,1-2,1.91l-.26,0-.64-.17v1.45c0,.78.07.8.92.9v.26h-2.57v-.26c.81-.09.84-.14.84-.92V208c0-.83-.1-.85-.84-.92v-.26Zm-.76,3.11a1.61,1.61,0,0,0,.68.13,1.47,1.47,0,0,0,0-2.93.92.92,0,0,0-.53.11c-.07.07-.1.18-.1.43Z"/><path class="cls-2" d="M160.82,207.11c-.59,0-.8.18-.82.61,0,.22,0,.61,0,1.46v1a3,3,0,0,1-.65,2.24,2.28,2.28,0,0,1-1.71.6,2.52,2.52,0,0,1-1.53-.43,2.45,2.45,0,0,1-.83-2.16v-2.37c0-.84-.07-.9-.82-1v-.26h2.45v.26c-.74,0-.82.12-.82,1v2.32c0,1.36.64,2.11,1.76,2.11,1.32,0,1.74-.82,1.74-2.37v-.95c0-.85,0-1.21-.05-1.46,0-.42-.24-.58-.93-.61v-.26h2.24Z"/><path class="cls-2" d="M169,213l-.34,0a1.63,1.63,0,0,1-1.45-.8c-.35-.47-.68-1.06-1-1.53-.19-.3-.31-.36-.78-.36h-.33v1.46c0,.79.1.84.85.92v.26H163.5v-.26c.78-.09.84-.13.84-.92V208c0-.79-.1-.82-.84-.9v-.26h2.38a2.67,2.67,0,0,1,1.49.31,1.4,1.4,0,0,1,.63,1.23,1.72,1.72,0,0,1-1.2,1.6c.17.29.57.91.85,1.33a7.83,7.83,0,0,0,.73,1,1.39,1.39,0,0,0,.68.43Zm-3.43-3a1.52,1.52,0,0,0,1-.27,1.3,1.3,0,0,0,.51-1.15,1.25,1.25,0,0,0-1.37-1.36.84.84,0,0,0-.5.1c-.08.06-.11.15-.11.4V210Z"/><path class="cls-2" d="M174.51,212.9v-.26c.6-.08.68-.17.55-.53s-.31-.82-.5-1.41h-2c-.15.42-.29.78-.42,1.16-.21.61-.08.68.69.78v.26h-2.15v-.26c.58-.08.73-.14,1.06-1l1.92-4.89.3-.05c.59,1.59,1.23,3.35,1.82,5,.3.81.38.88,1,1v.26Zm-.93-5-.89,2.38h1.74Z"/><path class="cls-2" d="M184.39,212.9v-.26c.76-.08.79-.13.78-1.13v-3.8c-.76,1.71-2,4.37-2.32,5.19h-.24c-.31-.85-1.37-3.41-2.07-5.1-.16,3.26-.17,4-.17,4.17,0,.53.24.6.87.67v.26h-2.2v-.26c.54-.06.76-.17.84-.67s.06-.75.3-4.15c0-.48-.05-.64-.87-.71v-.26h1.62l2.05,4.72,2.21-4.72h1.63v.26c-.8.09-.9.17-.88.83l0,3.57c0,1,.07,1,.89,1.13v.26Z"/><path class="cls-3" d="M199.56,207.11c-.6.06-.79.16-.82.58s0,.69,0,1.56V213h-.35l-4-4.87v2.33c0,.84,0,1.26,0,1.53,0,.47.25.61.92.67v.26h-2.26v-.26c.58,0,.8-.19.84-.65,0-.29,0-.71,0-1.56v-2.37a.86.86,0,0,0-.18-.62c-.18-.23-.38-.29-.83-.33v-.26h1.39l3.95,4.68v-2.28a15,15,0,0,0,0-1.55c0-.42-.24-.55-1-.59v-.26h2.3Z"/><path class="cls-3" d="M202.38,212.9v-.26c.77-.09.84-.13.84-.92V208c0-.8-.07-.84-.84-.92v-.26h2.5v.26c-.78.08-.85.12-.85.92v3.69c0,.8.07.83.85.92v.26Z"/><path class="cls-3" d="M207.87,206.85h2.49v.26c-.73.06-.86.13-.86,1v1.6a1.32,1.32,0,0,0,.67-.43c.52-.49,1.14-1.13,1.57-1.61.28-.32.25-.44-.15-.5l-.26,0v-.26h2.27v.26a2,2,0,0,0-1.57.77l-1.6,1.56c.71.84,1.74,2,2.22,2.54a1.46,1.46,0,0,0,1.18.66v.26h-1.49c-.72-.81-1.47-1.72-2.32-2.7a.56.56,0,0,0-.52-.27v1.77c0,.81.08.87.86.94v.26h-2.49v-.26c.76-.07.84-.13.84-.94v-3.63c0-.84-.07-.91-.84-1Z"/><path class="cls-3" d="M219.25,212.9v-.26c.6-.08.68-.17.55-.53s-.31-.82-.5-1.41h-2c-.15.42-.29.78-.42,1.16-.21.61-.08.68.69.78v.26h-2.15v-.26c.58-.08.73-.14,1.06-1l1.92-4.89.3-.05c.59,1.59,1.23,3.35,1.82,5,.29.81.38.88,1,1v.26Zm-.93-5c-.3.8-.62,1.64-.89,2.38h1.74Z"/><path class="cls-3" d="M230.42,207.11c-.77.07-.84.12-.84.9v3.73c0,.78.08.81.84.9v.26h-2.49v-.26c.77-.1.85-.12.85-.9v-1.86h-3.19v1.86c0,.77.08.8.84.9v.26H224v-.26c.75-.09.83-.12.83-.9V208c0-.78-.08-.83-.83-.9v-.26h2.48v.26c-.74.06-.84.13-.84.9v1.48h3.19V208c0-.77-.11-.84-.85-.9v-.26h2.49Z"/></svg>