<svg xmlns="http://www.w3.org/2000/svg" viewBox="0 0 841.89 595.28"><defs><style>.cls-1{isolation:isolate;}.cls-2{fill:#026d77;}.cls-3,.cls-4{fill:#81c4bd;}.cls-4{opacity:0.5;mix-blend-mode:overlay;}</style></defs><title>logoMain</title><g class="cls-1"><g id="Layer_1" data-name="Layer 1"><path class="cls-2" d="M443.71,450.09c.24,23.21-8.84,38.38-32.17,40.75-1.1.07-2.26.13-3.47.13a40.6,40.6,0,0,1-18.1-3.6c-11.27-6-17.85-19.13-18.09-37.65-.13-32.9.42-65.74.36-98.64,0-3.35-.12-6.58-.43-9.69-2.86-35.27-21.38-56.9-49.89-57.51-30.83-.67-51.49,25.34-51.73,65.74-.24,33.45-.37,67,0,100.47.3,24-9.38,39.35-34.48,41-22.85,1.52-36.93-14.08-37.29-41.37-.49-39.6-.85-79.2.06-118.81,1.4-59.7,43.32-106.8,103.51-117.83,36.19-6.64,79.15,6.89,107.48,32.6,12.24,11.15,21.81,24.55,26.87,39.6,4.75,14.14,6.82,36.43,7.67,56-.24,2.68-.36,5.48-.36,8.35C443.4,383.07,443.28,416.58,443.71,450.09Z"/><path class="cls-3" d="M369.05,123.08c.7,27.85-19,48.86-46.34,49.33-26.4.45-49-21.47-49.14-47.58-.09-24.68,21-46.67,45.86-47.88C346.48,75.64,368.36,96,369.05,123.08Z"/><path class="cls-4" d="M443.71,450.09c.24,23.21-8.84,38.38-32.17,40.75-1.1.07-2.26.13-3.47.13a40.6,40.6,0,0,1-18.1-3.6c-11.27-6-17.85-19.13-18.09-37.65-.13-32.9.42-65.74.36-98.64,0-3.35-.12-6.58-.43-9.69,0-3.47.07-7,.13-10.48.79-33.93,14.68-63.72,37.53-85.23,12.24,11.15,21.81,24.55,26.87,39.6,4.75,14.14,6.82,36.43,7.67,56-.24,2.68-.36,5.48-.36,8.35C443.4,383.07,443.28,416.58,443.71,450.09Z"/><path class="cls-3" d="M618.12,450.82c-.61,23.39-11.15,39.66-36.32,39.78s-36.12-15.48-36.19-39.36c-.12-33.51.43-67,.37-100.47-.06-41.06-19.31-66.59-50.32-67.26-28.82-.61-48.68,22-51.43,57.88-.18,2.56-.58,5.35-.58,8,0-2.87,0-5.46.2-8.22-.85-19.56-2.91-41.91-7.66-56-5.06-15-14.56-28.33-26.74-39.48,17.42-16.57,40.15-28.21,66.28-33,51.85-9.51,117.53,22.42,134.28,72.19,10.06,29.74,8.23,95.9,8.23,95.9C618.24,404.15,618.73,427.48,618.12,450.82Z"/><path class="cls-2" d="M563.78,115.69c-7.49-14.29-13-24.74-22.58-31.44-17.7-12.32-40.44-5.63-43-4.83-4.62,1.43-20,6.19-29,21.76-7.37,12.74-8,28.51-3.57,40.39,13.65,36.2,75.84,38,84.35,38.21,35.82,1,64-12.58,79.84-22.25a130.13,130.13,0,0,1-30.68,1.93c-11.53-.64-23.45-1.45-36.09-8.7a62.84,62.84,0,0,1-10.93-8c1.36.08,3.62.23,6.42.48,13.71,1.25,18.32,3,26.85,2.66a56.45,56.45,0,0,0,10.45-1.45,31.23,31.23,0,0,1-15.2-4.35C572,134.82,569.6,126.81,563.78,115.69Z"/></g></g></svg>